<svg xmlns="http://www.w3.org/2000/svg" width="1040" height="214" viewBox="0 0 1040 214" role="img" aria-label="유승주 (TrossYou) — Frontend Developer"><rect width="1040" height="214" fill="#FFFFFF"/><g transform="translate(32 32) scale(0.85) translate(-32 -32)"><rect x="32" y="46.25" width="28" height="1.5" fill="#3B4A6B"/><path fill="#3B4A6B" d="M73 41.4H79.8V43H74.9V45.9H79.3V47.5H74.9V52H73ZM83.6 41.4H87.6Q88.8 41.4 89.6 41.8Q90.5 42.2 90.9 43Q91.3 43.8 91.3 44.8Q91.3 45.8 90.9 46.6Q90.4 47.3 89.6 47.7Q88.7 48.1 87.5 48.1H84.7V46.5H87.3Q88 46.5 88.5 46.3Q88.9 46.1 89.1 45.7Q89.4 45.4 89.4 44.8Q89.4 44.2 89.1 43.8Q88.9 43.4 88.5 43.2Q88 43 87.3 43H85.5V52H83.6ZM91.7 52H89.6L87 47.2H89.1ZM99.7 52.1Q98.4 52.1 97.2 51.5Q96.1 50.8 95.5 49.6Q94.9 48.4 94.9 46.7Q94.9 45 95.5 43.8Q96.1 42.6 97.2 41.9Q98.4 41.2 99.7 41.2Q101.1 41.2 102.3 41.9Q103.4 42.6 104 43.8Q104.6 45 104.6 46.7Q104.6 48.4 104 49.6Q103.4 50.8 102.3 51.5Q101.1 52.1 99.7 52.1ZM99.7 43Q98.9 43 98.2 43.4Q97.5 43.8 97.2 44.7Q96.8 45.5 96.8 46.7Q96.8 47.9 97.2 48.7Q97.5 49.6 98.2 50Q98.9 50.4 99.7 50.4Q100.6 50.4 101.3 50Q102 49.6 102.3 48.7Q102.7 47.9 102.7 46.7Q102.7 45.5 102.3 44.7Q102 43.8 101.3 43.4Q100.6 43 99.7 43ZM117.2 52H115.5L110.5 44.8H110.4V52H108.5V41.4H110.2L115.2 48.6H115.3V41.4H117.2ZM120.9 41.4H129.4V43H126.1V52H124.2V43H120.9ZM133.1 41.4H140V43H135V45.9H139.6V47.5H135V50.4H140V52H133.1ZM152.7 52H151L146 44.8H145.9V52H144V41.4H145.7L150.7 48.6H150.8V41.4H152.7ZM157.8 52V50.3H160.4Q161.5 50.3 162.2 49.9Q163 49.5 163.4 48.7Q163.7 47.9 163.7 46.7Q163.7 45.5 163.4 44.7Q163 43.9 162.3 43.5Q161.5 43 160.5 43H157.7V41.4H160.6Q162.1 41.4 163.3 42Q164.4 42.7 165 43.9Q165.6 45 165.6 46.7Q165.6 48.3 165 49.5Q164.4 50.7 163.2 51.4Q162.1 52 160.5 52ZM158.8 52H156.9V41.4H158.8ZM176.2 52V50.3H178.8Q179.9 50.3 180.7 49.9Q181.4 49.5 181.8 48.7Q182.1 47.9 182.1 46.7Q182.1 45.5 181.8 44.7Q181.4 43.9 180.7 43.5Q179.9 43 178.9 43H176.1V41.4H179Q180.5 41.4 181.7 42Q182.8 42.7 183.4 43.9Q184 45 184 46.7Q184 48.3 183.4 49.5Q182.8 50.7 181.7 51.4Q180.5 52 178.9 52ZM177.2 52H175.3V41.4H177.2ZM187.9 41.4H194.8V43H189.8V45.9H194.5V47.5H189.8V50.4H194.9V52H187.9ZM203 49.8H203.1L205.9 41.4H208L204.3 52H201.9L198.2 41.4H200.3ZM211.5 41.4H218.4V43H213.4V45.9H218V47.5H213.4V50.4H218.4V52H211.5ZM222.4 41.4H224.3V50.4H229V52H222.4ZM236.9 52.1Q235.5 52.1 234.4 51.5Q233.3 50.8 232.7 49.6Q232 48.4 232 46.7Q232 45 232.7 43.8Q233.3 42.6 234.4 41.9Q235.5 41.2 236.9 41.2Q238.3 41.2 239.4 41.9Q240.5 42.6 241.1 43.8Q241.8 45 241.8 46.7Q241.8 48.4 241.1 49.6Q240.5 50.8 239.4 51.5Q238.3 52.1 236.9 52.1ZM236.9 43Q236 43 235.4 43.4Q234.7 43.8 234.3 44.7Q233.9 45.5 233.9 46.7Q233.9 47.9 234.3 48.7Q234.7 49.6 235.4 50Q236 50.4 236.9 50.4Q237.8 50.4 238.4 50Q239.1 49.6 239.5 48.7Q239.8 47.9 239.8 46.7Q239.8 45.5 239.5 44.7Q239.1 43.8 238.4 43.4Q237.8 43 236.9 43ZM245.7 41.4H249.6Q250.8 41.4 251.7 41.8Q252.5 42.3 252.9 43.1Q253.4 43.9 253.4 44.9Q253.4 45.9 252.9 46.7Q252.5 47.5 251.6 48Q250.8 48.4 249.6 48.4H247V46.8H249.3Q250 46.8 250.5 46.6Q251 46.3 251.2 45.9Q251.4 45.5 251.4 44.9Q251.4 44.3 251.2 43.9Q251 43.5 250.5 43.2Q250 43 249.3 43H247.6V52H245.7ZM257.1 41.4H264V43H259V45.9H263.7V47.5H259V50.4H264V52H257.1ZM268 41.4H272Q273.2 41.4 274.1 41.8Q274.9 42.2 275.3 43Q275.8 43.8 275.8 44.8Q275.8 45.8 275.3 46.6Q274.9 47.3 274 47.7Q273.2 48.1 272 48.1H269.1V46.5H271.7Q272.5 46.5 272.9 46.3Q273.4 46.1 273.6 45.7Q273.8 45.4 273.8 44.8Q273.8 44.2 273.6 43.8Q273.4 43.4 272.9 43.2Q272.4 43 271.7 43H269.9V52H268ZM276.1 52H274L271.4 47.2H273.5Z"/><path fill="#1F2328" d="M49.7 127.2H42.3V108.2H49.7ZM67.6 127.2H60.2V108.2H67.6ZM78.6 110.2H31.5V104.3H78.6ZM73.7 89Q73.7 92.4 71.3 95Q69 97.6 64.7 99Q60.4 100.4 54.9 100.4Q49.4 100.4 45.2 99Q40.9 97.6 38.6 95Q36.2 92.4 36.2 89Q36.2 85.5 38.6 82.9Q40.9 80.2 45.2 78.8Q49.4 77.4 54.9 77.4Q60.4 77.4 64.7 78.8Q69 80.2 71.3 82.9Q73.7 85.5 73.7 89ZM43.7 89Q43.7 90.8 45 92.1Q46.4 93.3 48.9 94Q51.5 94.7 54.9 94.7Q58.4 94.7 61 94Q63.5 93.3 64.9 92.1Q66.2 90.8 66.2 89Q66.2 87.1 64.9 85.8Q63.5 84.5 61 83.8Q58.4 83.1 54.9 83.1Q51.5 83.1 48.9 83.8Q46.4 84.5 45 85.8Q43.7 87.1 43.7 89ZM86.7 96.5 84 90.9Q89.5 90.3 93.5 88.3Q97.4 86.3 99.4 83.7Q101.5 81 101.5 78.2V76.4H107.7V78.2Q107.7 82.7 105.2 86.6Q102.7 90.5 97.9 93.1Q93.2 95.7 86.7 96.5ZM126.3 90.9 123.7 96.5Q117.3 95.7 112.5 93.1Q107.8 90.5 105.2 86.6Q102.7 82.7 102.7 78.2V76.4H108.9V78.2Q108.9 81 110.9 83.6Q112.9 86.3 116.9 88.3Q120.8 90.3 126.3 90.9ZM128.7 105.1H81.7V99.4H128.7ZM123.1 117.9Q123.1 120.9 120.9 123Q118.8 125.1 114.7 126.2Q110.7 127.3 105.1 127.3Q99.5 127.3 95.4 126.2Q91.4 125.1 89.2 123Q87 120.9 87 117.9Q87 114.9 89.2 112.8Q91.3 110.7 95.4 109.6Q99.5 108.5 105.1 108.5Q110.7 108.5 114.7 109.6Q118.8 110.7 120.9 112.8Q123.1 114.9 123.1 117.9ZM94.4 117.9Q94.4 119.2 95.6 120.1Q96.8 121 99.1 121.4Q101.5 121.8 105.1 121.8Q108.7 121.8 111 121.4Q113.4 121 114.6 120.1Q115.8 119.2 115.8 117.9Q115.8 116.6 114.6 115.7Q113.4 114.9 111 114.4Q108.7 114 105.1 114Q101.5 114 99.1 114.4Q96.8 114.8 95.6 115.7Q94.4 116.6 94.4 117.9ZM136.8 101.1 134.1 95.5Q139.5 94.8 143.4 92.9Q147.2 90.9 149.2 88.3Q151.1 85.7 151.1 82.9V81.4H157.4V82.9Q157.4 87.5 154.9 91.3Q152.5 95.1 147.8 97.7Q143.2 100.2 136.8 101.1ZM176.6 95.5 174 101.1Q167.6 100.2 162.9 97.7Q158.2 95.1 155.7 91.3Q153.2 87.5 153.2 82.9V81.4H159.5V82.9Q159.5 85.7 161.4 88.3Q163.4 90.9 167.2 92.9Q171.1 94.8 176.6 95.5ZM158.7 127.2H151.6V108.2H158.7ZM178.8 109.9H131.8V104.1H178.8ZM174.6 84H136V78.4H174.6Z"/><path fill="#59636E" d="M201.3 99.9H203.5Q202.5 101.3 201.6 103.7Q200.7 106 200.2 108.7Q199.7 111.4 199.7 113.9Q199.7 116.4 200.2 119.1Q200.7 121.9 201.6 124.2Q202.5 126.5 203.5 128H201.3Q199.2 125 198.1 121.5Q197.1 118 197 113.9Q197.1 109.8 198.1 106.3Q199.2 102.8 201.3 99.9ZM205.8 100.8H221.8V103.1H215.1V122H212.5V103.1H205.8ZM223.3 106.1H225.7V108.5H225.9Q226.4 107.3 227.5 106.6Q228.6 105.8 230 105.8Q230.8 105.8 231.3 105.9V108.4Q231.2 108.4 230.7 108.3Q230.3 108.3 229.8 108.3Q228.7 108.3 227.8 108.7Q226.9 109.2 226.4 110.1Q225.8 110.9 225.8 112V122H223.3ZM232.5 114.1Q232.5 111.7 233.4 109.8Q234.3 107.9 236 106.9Q237.7 105.9 239.8 105.9Q241.9 105.9 243.6 106.9Q245.2 107.9 246.1 109.8Q247 111.7 247 114.1Q247 116.6 246.1 118.4Q245.2 120.3 243.6 121.3Q241.9 122.3 239.8 122.3Q237.7 122.3 236 121.3Q234.3 120.3 233.4 118.4Q232.5 116.6 232.5 114.1ZM244.5 114.1Q244.5 112.5 244 111.1Q243.5 109.8 242.4 108.9Q241.3 108.1 239.8 108.1Q238.2 108.1 237.2 108.9Q236.1 109.8 235.6 111.1Q235 112.5 235 114.1Q235 115.8 235.6 117.1Q236.1 118.5 237.2 119.3Q238.2 120.1 239.8 120.1Q241.3 120.1 242.4 119.3Q243.5 118.5 244 117.1Q244.5 115.8 244.5 114.1ZM255.9 108Q255 108 254.2 108.3Q253.4 108.6 253 109.2Q252.6 109.8 252.6 110.4Q252.6 111.2 253.2 111.8Q253.9 112.3 255.3 112.7L257.7 113.2Q259.8 113.7 260.9 114.8Q261.9 115.9 261.9 117.5Q261.9 118.9 261.2 120Q260.4 121.1 259 121.7Q257.6 122.3 255.7 122.3Q253.9 122.3 252.6 121.8Q251.3 121.3 250.5 120.3Q249.8 119.3 249.5 117.8H252.2Q252.4 119 253.3 119.6Q254.1 120.1 255.6 120.1Q256.7 120.1 257.6 119.8Q258.4 119.5 258.8 119Q259.3 118.4 259.3 117.7Q259.3 116.8 258.7 116.3Q258 115.7 256.7 115.4L254.3 114.9Q252.2 114.4 251.1 113.3Q250 112.2 250 110.6Q250 109.2 250.8 108.2Q251.5 107.1 252.9 106.5Q254.2 105.9 255.9 105.9Q257.5 105.9 258.8 106.4Q260 107 260.7 108Q261.5 108.9 261.6 110.2H259.2Q258.9 109.2 258.1 108.6Q257.3 108 255.9 108ZM270.8 108Q269.8 108 269.1 108.3Q268.3 108.6 267.9 109.2Q267.4 109.8 267.4 110.4Q267.4 111.2 268.1 111.8Q268.8 112.3 270.2 112.7L272.5 113.2Q274.7 113.7 275.7 114.8Q276.8 115.9 276.8 117.5Q276.8 118.9 276.1 120Q275.3 121.1 273.9 121.7Q272.5 122.3 270.6 122.3Q268.8 122.3 267.5 121.8Q266.2 121.3 265.4 120.3Q264.6 119.3 264.4 117.8H267.1Q267.3 119 268.2 119.6Q269 120.1 270.5 120.1Q271.6 120.1 272.4 119.8Q273.3 119.5 273.7 119Q274.2 118.4 274.2 117.7Q274.2 116.8 273.6 116.3Q272.9 115.7 271.6 115.4L269.2 114.9Q267.1 114.4 266 113.3Q264.9 112.2 264.9 110.6Q264.9 109.2 265.7 108.2Q266.4 107.1 267.8 106.5Q269.1 105.9 270.8 105.9Q272.4 105.9 273.7 106.4Q274.9 107 275.6 108Q276.4 108.9 276.5 110.2H274Q273.8 109.2 273 108.6Q272.2 108 270.8 108ZM281.6 100.8 287.4 110.6H287.7L293.5 100.8H296.6L288.9 113.3V122H286.2V113.3L278.6 100.8ZM296 114.1Q296 111.7 296.9 109.8Q297.9 107.9 299.5 106.9Q301.2 105.9 303.3 105.9Q305.4 105.9 307.1 106.9Q308.7 107.9 309.6 109.8Q310.5 111.7 310.5 114.1Q310.5 116.6 309.6 118.4Q308.7 120.3 307.1 121.3Q305.4 122.3 303.3 122.3Q301.2 122.3 299.5 121.3Q297.9 120.3 296.9 118.4Q296 116.6 296 114.1ZM308 114.1Q308 112.5 307.5 111.1Q307 109.8 305.9 108.9Q304.9 108.1 303.3 108.1Q301.8 108.1 300.7 108.9Q299.6 109.8 299.1 111.1Q298.6 112.5 298.6 114.1Q298.6 115.8 299.1 117.1Q299.6 118.5 300.7 119.3Q301.8 120.1 303.3 120.1Q304.9 120.1 305.9 119.3Q307 118.5 307.5 117.1Q308 115.8 308 114.1ZM323.9 106.1H326.4V122H323.9V119.3H323.7Q323.1 120.6 321.9 121.4Q320.7 122.2 319 122.2Q317.5 122.2 316.3 121.5Q315.1 120.9 314.5 119.5Q313.8 118.2 313.8 116.2V106.1H316.3V116Q316.3 117.1 316.8 118Q317.2 118.8 318 119.3Q318.8 119.8 319.8 119.8Q320.8 119.8 321.7 119.3Q322.6 118.8 323.3 117.8Q323.9 116.8 323.9 115.5ZM331.7 99.9H329.5Q330.5 101.3 331.4 103.7Q332.3 106 332.8 108.7Q333.3 111.4 333.3 113.9Q333.3 116.4 332.8 119.1Q332.3 121.9 331.4 124.2Q330.5 126.5 329.5 128H331.7Q333.8 125 334.8 121.5Q335.9 118 335.9 113.9Q335.9 109.8 334.8 106.3Q333.8 102.8 331.7 99.9Z"/><g transform="translate(32 150) scale(1.12) translate(-32 -150)"><path fill="#59636E" d="M33.6 155.9H38.4Q40 155.9 41.1 156.4Q42.2 157 42.7 157.9Q43.2 158.9 43.2 160.2Q43.2 161.5 42.7 162.5Q42.2 163.4 41.1 164Q40 164.5 38.4 164.5H34.5V162.9H38.3Q39.4 162.9 40.1 162.6Q40.8 162.3 41.1 161.7Q41.5 161.1 41.5 160.2Q41.5 159.3 41.1 158.7Q40.8 158.1 40.1 157.8Q39.4 157.4 38.3 157.4H35.3V170H33.6ZM43.7 170H41.7L38.3 163.7H40.3ZM44.9 164.8Q44.9 163.2 45.5 161.9Q46.1 160.6 47.2 160Q48.3 159.3 49.7 159.3Q50.9 159.3 52 159.8Q53 160.3 53.6 161.5Q54.3 162.7 54.3 164.6V165.3H46.1V163.8H52.6Q52.6 162.9 52.2 162.2Q51.9 161.5 51.2 161.1Q50.6 160.7 49.7 160.7Q48.8 160.7 48.1 161.2Q47.4 161.7 47 162.4Q46.6 163.2 46.6 164.1V165Q46.6 166.2 47 167Q47.4 167.9 48.1 168.3Q48.9 168.7 49.9 168.7Q50.5 168.7 51 168.6Q51.4 168.4 51.8 168.1Q52.1 167.9 52.3 167.5H54.1Q53.9 168.3 53.3 168.9Q52.7 169.5 51.8 169.9Q50.9 170.2 49.9 170.2Q48.4 170.2 47.2 169.5Q46.1 168.9 45.5 167.6Q44.9 166.4 44.9 164.8ZM61.2 165.2 60.1 165.3Q58.9 165.4 58.3 165.8Q57.6 166.2 57.6 167.1Q57.6 167.6 57.9 168Q58.2 168.4 58.7 168.6Q59.2 168.8 59.9 168.8Q60.8 168.8 61.4 168.4Q62.1 168 62.5 167.4Q62.8 166.8 62.8 166.2V162.9Q62.8 162.2 62.5 161.7Q62.3 161.2 61.7 161Q61.2 160.7 60.4 160.7Q59.5 160.7 58.8 161.1Q58.2 161.5 58 162.1H56.3Q56.4 161.3 56.9 160.6Q57.5 160 58.4 159.6Q59.3 159.3 60.5 159.3Q61.4 159.3 62.3 159.5Q63.2 159.8 63.8 160.6Q64.5 161.5 64.5 163V170H62.8V168.6H62.7Q62.5 169 62.1 169.3Q61.7 169.7 61.1 170Q60.4 170.3 59.6 170.3Q58.6 170.3 57.7 169.9Q56.9 169.5 56.4 168.7Q56 168 56 167Q56 165.3 57.1 164.7Q58.2 164 59.9 163.9Q60.1 163.8 61.8 163.8L62.9 163.7L62.9 165.1Q62.8 165.1 61.2 165.2ZM66.7 164.7Q66.7 163.1 67.3 161.9Q67.9 160.6 69 160Q70 159.3 71.5 159.3Q72.6 159.3 73.5 159.7Q74.4 160.1 75 160.8Q75.5 161.6 75.7 162.6H74Q73.9 162.1 73.6 161.7Q73.2 161.2 72.7 161Q72.2 160.7 71.5 160.7Q70.6 160.7 69.9 161.2Q69.1 161.7 68.7 162.6Q68.3 163.5 68.3 164.7Q68.3 165.9 68.7 166.8Q69.1 167.7 69.8 168.2Q70.5 168.7 71.5 168.7Q72.1 168.7 72.6 168.5Q73.2 168.3 73.5 167.9Q73.9 167.4 74 166.9H75.7Q75.5 167.8 75 168.6Q74.5 169.3 73.6 169.8Q72.7 170.2 71.5 170.2Q70 170.2 68.9 169.5Q67.8 168.8 67.2 167.6Q66.7 166.3 66.7 164.7ZM82.4 160.8H76.9V159.4H82.4ZM80.2 156.9V167Q80.2 167.6 80.3 167.9Q80.5 168.3 80.8 168.4Q81.1 168.5 81.5 168.5Q82 168.5 82.5 168.5V170.1Q82 170.1 81.4 170.1Q80.6 170.1 80 169.8Q79.3 169.5 78.9 168.9Q78.5 168.3 78.5 167.4V156.9ZM84.1 163.8Q84.1 163.5 84.3 163.2Q84.4 162.9 84.7 162.7Q85 162.6 85.3 162.6Q85.7 162.6 86 162.7Q86.3 162.9 86.4 163.2Q86.6 163.5 86.6 163.8Q86.6 164.1 86.4 164.4Q86.3 164.7 86 164.9Q85.7 165.1 85.3 165.1Q85 165.1 84.7 164.9Q84.4 164.7 84.3 164.4Q84.1 164.1 84.1 163.8ZM87.1 155.9H97.8V157.4H93.4V170H91.6V157.4H87.1ZM98.8 173.9V172.4L99.2 172.5Q99.3 172.5 99.7 172.5Q100.1 172.5 100.4 172.4Q100.7 172.3 100.9 172Q101.2 171.6 101.5 170.9L101.8 170.1L97.9 159.4H99.7L102.6 167.8H102.7L105.6 159.4H107.4L102.9 171.5Q102.5 172.8 101.7 173.4Q100.9 174 99.8 174Q99.3 174 98.8 173.9ZM109.3 159.4H110.9V161.1H111.1Q111.4 160.6 111.7 160.2Q112 159.9 112.6 159.6Q113.2 159.3 114.2 159.3Q115.5 159.3 116.5 159.9Q117.6 160.6 118.1 161.8Q118.7 163.1 118.7 164.7Q118.7 166.4 118.1 167.6Q117.6 168.9 116.5 169.5Q115.5 170.2 114.2 170.2Q113.3 170.2 112.7 169.9Q112 169.6 111.7 169.2Q111.4 168.9 111.1 168.4H111V174H109.3ZM114 168.7Q114.9 168.7 115.6 168.2Q116.3 167.7 116.7 166.7Q117 165.8 117 164.7Q117 163.6 116.7 162.7Q116.3 161.8 115.6 161.3Q115 160.8 114 160.8Q113 160.8 112.3 161.2Q111.6 161.7 111.3 162.6Q110.9 163.5 110.9 164.7Q110.9 165.9 111.3 166.8Q111.6 167.7 112.3 168.2Q113 168.7 114 168.7ZM120.4 164.8Q120.4 163.2 121 161.9Q121.6 160.6 122.7 160Q123.7 159.3 125.2 159.3Q126.4 159.3 127.4 159.8Q128.5 160.3 129.1 161.5Q129.7 162.7 129.7 164.6V165.3H121.5V163.8H128Q128 162.9 127.7 162.2Q127.3 161.5 126.7 161.1Q126 160.7 125.2 160.7Q124.2 160.7 123.5 161.2Q122.8 161.7 122.4 162.4Q122 163.2 122 164.1V165Q122 166.2 122.5 167Q122.9 167.9 123.6 168.3Q124.4 168.7 125.3 168.7Q125.9 168.7 126.4 168.6Q126.9 168.4 127.3 168.1Q127.6 167.9 127.8 167.5H129.6Q129.3 168.3 128.7 168.9Q128.2 169.5 127.3 169.9Q126.4 170.2 125.3 170.2Q123.8 170.2 122.7 169.5Q121.6 168.9 121 167.6Q120.4 166.4 120.4 164.8ZM136.7 157.2Q135.8 157.2 135.1 157.5Q134.4 157.8 134 158.3Q133.6 158.9 133.6 159.6Q133.6 160.5 134.4 161Q135.2 161.6 136.4 161.9L137.8 162.2Q139.4 162.7 140.6 163.5Q141.8 164.4 141.8 166.2Q141.8 167.3 141.2 168.2Q140.6 169.2 139.4 169.7Q138.2 170.3 136.6 170.3Q135.1 170.3 134 169.8Q132.9 169.3 132.3 168.4Q131.6 167.5 131.5 166.3H133.3Q133.4 167.1 133.9 167.6Q134.3 168.1 135.1 168.4Q135.8 168.7 136.6 168.7Q137.6 168.7 138.4 168.3Q139.2 168 139.6 167.4Q140.1 166.9 140.1 166.1Q140.1 165.5 139.7 165Q139.3 164.6 138.7 164.3Q138.1 164 137.3 163.8L135.5 163.3Q133.8 162.8 132.9 161.9Q131.9 161 131.9 159.6Q131.9 158.5 132.6 157.6Q133.2 156.7 134.3 156.2Q135.4 155.7 136.8 155.7Q138.1 155.7 139.2 156.2Q140.3 156.6 140.9 157.5Q141.5 158.3 141.6 159.4H139.9Q139.8 158.7 139.4 158.2Q139 157.7 138.3 157.5Q137.6 157.2 136.7 157.2ZM143.6 164.7Q143.6 163.1 144.2 161.9Q144.8 160.6 145.9 160Q147 159.3 148.4 159.3Q149.5 159.3 150.4 159.7Q151.3 160.1 151.9 160.8Q152.5 161.6 152.6 162.6H150.9Q150.8 162.1 150.5 161.7Q150.1 161.2 149.6 161Q149.1 160.7 148.4 160.7Q147.5 160.7 146.8 161.2Q146.1 161.7 145.7 162.6Q145.3 163.5 145.3 164.7Q145.3 165.9 145.6 166.8Q146 167.7 146.7 168.2Q147.5 168.7 148.4 168.7Q149 168.7 149.6 168.5Q150.1 168.3 150.4 167.9Q150.8 167.4 150.9 166.9H152.6Q152.5 167.8 151.9 168.6Q151.4 169.3 150.5 169.8Q149.6 170.2 148.4 170.2Q147 170.2 145.8 169.5Q144.7 168.8 144.2 167.6Q143.6 166.3 143.6 164.7ZM154.7 159.4H156.3V161H156.4Q156.7 160.2 157.4 159.7Q158.2 159.2 159.1 159.2Q159.6 159.2 160 159.3V161Q159.9 160.9 159.6 160.9Q159.3 160.8 159 160.8Q158.3 160.8 157.7 161.2Q157 161.5 156.7 162.1Q156.3 162.6 156.3 163.3V170H154.7ZM161.7 159.4H163.3V170H161.7ZM161.3 156.5Q161.3 156.2 161.5 156Q161.6 155.7 161.9 155.6Q162.2 155.4 162.5 155.4Q162.8 155.4 163.1 155.6Q163.4 155.7 163.5 156Q163.7 156.2 163.7 156.5Q163.7 156.8 163.5 157.1Q163.4 157.3 163.1 157.5Q162.8 157.6 162.5 157.6Q162.2 157.6 161.9 157.5Q161.6 157.3 161.5 157.1Q161.3 156.8 161.3 156.5ZM166 159.4H167.6V161.1H167.8Q168.1 160.6 168.4 160.2Q168.7 159.9 169.3 159.6Q170 159.3 170.9 159.3Q172.2 159.3 173.2 159.9Q174.3 160.6 174.8 161.8Q175.4 163.1 175.4 164.7Q175.4 166.4 174.8 167.6Q174.3 168.9 173.2 169.5Q172.2 170.2 170.9 170.2Q170 170.2 169.4 169.9Q168.7 169.6 168.4 169.2Q168.1 168.9 167.8 168.4H167.7V174H166ZM170.7 168.7Q171.7 168.7 172.4 168.2Q173 167.7 173.4 166.7Q173.7 165.8 173.7 164.7Q173.7 163.6 173.4 162.7Q173 161.8 172.4 161.3Q171.7 160.8 170.7 160.8Q169.7 160.8 169 161.2Q168.4 161.7 168 162.6Q167.7 163.5 167.7 164.7Q167.7 165.9 168 166.8Q168.4 167.7 169 168.2Q169.7 168.7 170.7 168.7ZM182.2 160.8H176.7V159.4H182.2ZM180 156.9V167Q180 167.6 180.2 167.9Q180.4 168.3 180.7 168.4Q181 168.5 181.4 168.5Q181.9 168.5 182.4 168.5V170.1Q181.9 170.1 181.2 170.1Q180.5 170.1 179.8 169.8Q179.1 169.5 178.7 168.9Q178.3 168.3 178.3 167.4V156.9ZM199.6 169.4H183.7V168.1H199.6ZM192.4 168.7H190.9V164.4H192.4ZM197.6 160.8H187.3V164.3H185.7V159.5H196.1V156.8H185.7V155.5H197.6ZM198 164.9H185.7V163.6H198ZM212.2 167.4H210.6V164.6H212.2ZM219.5 171.6H218V154.2H219.5ZM222.3 162.9H219.1V161.6H222.3ZM216.9 166.4 217 167.6Q215.3 167.9 213.4 168Q211.5 168.2 209.8 168.2Q208.1 168.3 206.1 168.3L205.8 167Q209.1 167 211.8 166.9Q214.5 166.8 216.9 166.4ZM216.6 157.6H206.2V156.3H216.6ZM215.5 161.8Q215.5 162.8 215 163.5Q214.5 164.2 213.5 164.6Q212.6 165 211.4 165Q210.2 165 209.3 164.6Q208.3 164.2 207.8 163.5Q207.3 162.8 207.3 161.8Q207.3 160.9 207.8 160.1Q208.3 159.4 209.3 159Q210.2 158.6 211.4 158.6Q212.6 158.6 213.5 159Q214.5 159.4 215 160.1Q215.5 160.9 215.5 161.8ZM208.7 161.8Q208.7 162.4 209.1 162.9Q209.4 163.3 210 163.6Q210.6 163.8 211.4 163.8Q212.2 163.8 212.8 163.6Q213.4 163.3 213.7 162.9Q214.1 162.4 214.1 161.8Q214.1 161.2 213.7 160.8Q213.4 160.3 212.8 160.1Q212.2 159.8 211.4 159.8Q210.6 159.8 210 160.1Q209.4 160.3 209.1 160.8Q208.7 161.2 208.7 161.8ZM212.2 157.1H210.6V154.3H212.2ZM236.7 158.6H231.7V157.3H236.7ZM236.7 162.3H231.7V161H236.7ZM232.1 163.8H224.2V155.7H232.1ZM225.7 162.6H230.6V157H225.7ZM237.7 166.9H236.2V154.2H237.7ZM238.1 171.2H226.5V169.9H238.1ZM228 170.5H226.5V165.8H228ZM254.7 157.5Q254.7 158.5 253.9 159.2Q253.2 159.8 251.8 160.2Q250.5 160.5 248.5 160.6Q246.6 160.5 245.2 160.2Q243.8 159.8 243.1 159.2Q242.4 158.5 242.4 157.5Q242.4 156.6 243.1 155.9Q243.8 155.2 245.2 154.9Q246.6 154.5 248.5 154.5Q250.5 154.5 251.8 154.9Q253.2 155.2 253.9 155.9Q254.7 156.6 254.7 157.5ZM244 157.5Q244 158.1 244.5 158.5Q245 159 246.1 159.2Q247.1 159.4 248.5 159.4Q250 159.4 251 159.2Q252 159 252.6 158.5Q253.1 158.1 253.1 157.5Q253.1 157 252.6 156.5Q252 156.1 251 155.9Q250 155.7 248.5 155.7Q247.1 155.7 246.1 155.9Q245.1 156.1 244.5 156.5Q244 157 244 157.5ZM256.4 163H240.6V161.7H256.4ZM254.4 168.4H244.1V170.5H242.6V167.2H252.9V165.7H242.5V164.5H254.4ZM254.9 171.4H242.6V170.2H254.9ZM271.7 163.8H263.7V155.8H271.7ZM265.2 162.6H270.2V157.1H265.2ZM276.5 167H275V154.2H276.5ZM279.1 160.8H276V159.5H279.1ZM277.3 171.2H265.6V169.9H277.3ZM267.1 170.4H265.6V165.7H267.1ZM296.1 162.8H280.2V161.5H296.1ZM294.2 160.1H282.3V158.8H294.2ZM294 156.1H283.9V159.8H282.3V154.8H294ZM294 168.3H283.7V170.6H282.2V167.2H292.5V165.5H282.1V164.3H294ZM294.5 171.4H282.2V170.1H294.5ZM310.5 157.2H299.2V156H310.5ZM313.3 169.1H297.5V167.9H313.3ZM305.2 168.5H303.7V161.6H305.2ZM310.8 165.7 309.2 165.5Q309.5 164 309.7 162.6Q309.8 161.3 309.9 160.2Q309.9 159.1 309.9 157.7V156H311.4V157.7Q311.4 159.3 311.4 160.3Q311.3 161.3 311.2 162.7Q311.1 164.1 310.8 165.7ZM316.1 174H314.7L315.7 168.7H317.6Z"/><path fill="#59636E" d="M33.5 194.2 32.7 192.9Q34 192.5 35 191.6Q36 190.7 36.6 189.5Q37.2 188.3 37.2 187V185.2H38.4V187Q38.4 188.7 37.8 190.1Q37.2 191.5 36.1 192.6Q35 193.6 33.5 194.2ZM43 192.5 42.1 193.7Q40.7 193.1 39.7 192.2Q38.6 191.2 38 189.8Q37.4 188.5 37.4 187V185.2H38.7V187Q38.7 188.2 39.2 189.3Q39.8 190.4 40.7 191.2Q41.7 192.1 43 192.5ZM47.1 194.5H45.6V184.2H47.1ZM47.2 198.3Q47.2 199.3 46.5 200Q45.8 200.8 44.5 201.2Q43.2 201.5 41.3 201.5Q39.5 201.5 38.2 201.2Q36.9 200.8 36.2 200Q35.5 199.3 35.5 198.3Q35.5 197.3 36.2 196.5Q36.9 195.8 38.2 195.4Q39.5 195 41.3 195Q43.2 195 44.5 195.4Q45.8 195.8 46.5 196.5Q47.2 197.3 47.2 198.3ZM37 198.3Q37 198.9 37.6 199.4Q38.1 199.8 39.1 200.1Q40 200.3 41.3 200.3Q42.7 200.3 43.6 200.1Q44.6 199.8 45.1 199.4Q45.6 198.9 45.6 198.3Q45.6 197.7 45.1 197.2Q44.6 196.7 43.6 196.5Q42.7 196.2 41.3 196.2Q40 196.2 39.1 196.5Q38.1 196.7 37.6 197.2Q37 197.7 37 198.3ZM45.9 189.2H41.7V187.9H45.9ZM64 190.4H52.2V189.1H64ZM53.7 189.6H52.2V184.6H53.7ZM65.8 193.7H50V192.4H65.8ZM63.9 198.4Q63.9 199.4 63.2 200.1Q62.4 200.8 61.1 201.1Q59.8 201.5 57.9 201.5Q56 201.5 54.7 201.1Q53.3 200.8 52.6 200.1Q51.9 199.4 51.9 198.4Q51.9 197.4 52.6 196.7Q53.3 195.9 54.7 195.6Q56 195.2 57.9 195.2Q59.8 195.2 61.1 195.6Q62.4 195.9 63.2 196.7Q63.9 197.4 63.9 198.4ZM53.5 198.4Q53.5 199 54 199.4Q54.5 199.8 55.5 200.1Q56.5 200.3 57.9 200.3Q59.3 200.3 60.3 200.1Q61.3 199.8 61.8 199.4Q62.3 199 62.3 198.4Q62.3 197.8 61.8 197.3Q61.3 196.9 60.3 196.7Q59.3 196.4 57.9 196.4Q56.5 196.4 55.5 196.7Q54.5 196.9 54 197.3Q53.5 197.8 53.5 198.4ZM87.1 201.6H85.6V184.2H87.1ZM86.2 192.5H82.8V191.2H86.2ZM73.2 197.9 72.3 196.8Q74.5 195.6 75.8 194Q77.1 192.5 77.7 190.6Q78.3 188.8 78.3 186.7V186.5H79.8Q79.8 188.8 79.1 190.9Q78.5 192.9 77.1 194.7Q75.6 196.5 73.2 197.9ZM78.8 187.8H73V186.5H78.8ZM83.2 200.7H81.7V184.7H83.2ZM103 189.6H98.6V188.3H103ZM90.4 194.7 89.6 193.5Q90.9 193 91.9 192.1Q92.9 191.2 93.4 190Q94 188.8 94 187.4V185.3H95.2V187.4Q95.2 189.1 94.6 190.5Q94 192 92.9 193.1Q91.9 194.2 90.4 194.7ZM99.8 193.1 99 194.3Q97.6 193.8 96.5 192.7Q95.5 191.7 94.9 190.4Q94.3 189 94.3 187.5V185.3H95.5V187.5Q95.5 188.7 96.1 189.8Q96.6 190.9 97.6 191.8Q98.6 192.7 99.8 193.1ZM104 197.2H102.4V184.2H104ZM104.4 201.2H92.7V199.9H104.4ZM94.3 200.5H92.7V195.8H94.3ZM120.9 187.5Q120.9 188.5 120.2 189.2Q119.5 189.8 118.1 190.2Q116.7 190.5 114.8 190.6Q112.8 190.5 111.5 190.2Q110.1 189.8 109.4 189.2Q108.6 188.5 108.6 187.5Q108.6 186.6 109.4 185.9Q110.1 185.2 111.5 184.9Q112.8 184.5 114.8 184.5Q116.7 184.5 118.1 184.9Q119.5 185.2 120.2 185.9Q120.9 186.6 120.9 187.5ZM110.2 187.5Q110.2 188.1 110.8 188.5Q111.3 189 112.3 189.2Q113.3 189.4 114.8 189.4Q116.2 189.4 117.2 189.2Q118.3 189 118.8 188.5Q119.3 188.1 119.3 187.5Q119.3 187 118.8 186.5Q118.2 186.1 117.2 185.9Q116.2 185.7 114.8 185.7Q113.3 185.7 112.3 185.9Q111.3 186.1 110.8 186.5Q110.2 187 110.2 187.5ZM122.7 193H106.9V191.7H122.7ZM120.7 198.4H110.3V200.5H108.8V197.2H119.1V195.7H108.8V194.5H120.7ZM121.2 201.4H108.8V200.2H121.2ZM130.6 192.1 130 190.8Q131.6 190.6 133 189.9Q134.5 189.2 135.4 188.1Q136.3 187 136.3 185.8V184.8H137.6V185.8Q137.6 187.4 136.7 188.7Q135.7 190.1 134.1 190.9Q132.4 191.8 130.6 192.1ZM144.2 190.8 143.6 192.1Q141.8 191.8 140.2 190.9Q138.5 190 137.5 188.7Q136.6 187.4 136.6 185.8V184.8H137.9V185.8Q137.9 187 138.8 188.1Q139.7 189.2 141.2 189.9Q142.6 190.6 144.2 190.8ZM137.8 201.6H136.3V195H137.8ZM145 195.3H129.2V194H145ZM160.8 201.6H159.2V184.2H160.8ZM147.7 198.2 146.8 197Q148.1 196.4 149.1 195.3Q150.2 194.2 150.8 192.8Q151.4 191.4 151.4 189.9V188.3H152.6V189.9Q152.6 191.7 152 193.3Q151.3 195 150.2 196.3Q149.1 197.6 147.7 198.2ZM157.5 196.7 156.6 197.9Q155.2 197.3 154.1 196.1Q153 194.8 152.3 193.2Q151.6 191.6 151.6 189.9V188.3H152.9V189.9Q152.9 191.3 153.5 192.7Q154.1 194 155.2 195.1Q156.2 196.2 157.5 196.7ZM156.9 188.5H147.3V187.2H156.9ZM152.9 187.9H151.3V184.6H152.9ZM179.6 199.4H163.7V198.1H179.6ZM172.4 198.7H170.9V194.4H172.4ZM177.6 190.8H167.3V194.3H165.7V189.5H176.1V186.8H165.7V185.5H177.6ZM178 194.9H165.7V193.6H178ZM186.9 194.3 186.2 193Q188.5 192.4 190.1 191.4Q191.7 190.4 192.5 189Q193.4 187.6 193.4 186V185.4H195Q195 187.5 194 189.2Q193 191 191.2 192.3Q189.4 193.5 186.9 194.3ZM194.4 186.6H187.1V185.4H194.4ZM200.4 194.1H198.9V184.2H200.4ZM199.2 190H195V188.7H199.2ZM200.4 201.3H189.2V194.9H200.4ZM190.7 200.1H198.9V196.1H190.7ZM219.1 193.8H203.3V192.5H219.1ZM217.2 198.4Q217.2 199.4 216.5 200.1Q215.8 200.8 214.5 201.2Q213.1 201.5 211.2 201.5Q209.4 201.5 208 201.2Q206.7 200.8 206 200.1Q205.2 199.4 205.2 198.4Q205.2 197.4 206 196.7Q206.7 196 208 195.6Q209.4 195.3 211.2 195.3Q213.1 195.3 214.4 195.6Q215.8 196 216.5 196.7Q217.2 197.4 217.2 198.4ZM206.8 198.4Q206.8 199 207.3 199.4Q207.9 199.9 208.9 200.1Q209.9 200.3 211.2 200.3Q212.6 200.3 213.6 200.1Q214.6 199.9 215.1 199.4Q215.7 199 215.7 198.4Q215.7 197.8 215.1 197.4Q214.6 196.9 213.6 196.7Q212.6 196.5 211.2 196.5Q209.9 196.5 208.8 196.7Q207.8 196.9 207.3 197.4Q206.8 197.8 206.8 198.4ZM204.8 191.4 204.2 190.2Q205.8 190 207.2 189.5Q208.6 188.9 209.4 188.1Q210.2 187.3 210.2 186.3V185.8H211.6V186.3Q211.6 187.7 210.7 188.7Q209.7 189.8 208.2 190.5Q206.6 191.2 204.8 191.4ZM218.3 190.2 217.7 191.4Q215.9 191.2 214.3 190.5Q212.8 189.8 211.8 188.7Q210.9 187.7 210.9 186.3V185.8H212.2V186.3Q212.2 187.3 213.1 188.1Q213.9 188.9 215.3 189.5Q216.7 190 218.3 190.2ZM217.7 186.4H204.8V185.1H217.7ZM234.1 201.6H232.5V184.2H234.1ZM237 192.7H233.7V191.4H237ZM230.8 188.3H220.5V187H230.8ZM230 193.7Q230 194.9 229.5 195.8Q228.9 196.7 228 197.2Q227 197.7 225.8 197.7Q224.5 197.7 223.6 197.2Q222.6 196.7 222.1 195.8Q221.5 194.9 221.5 193.7Q221.5 192.6 222.1 191.7Q222.6 190.7 223.6 190.2Q224.5 189.7 225.8 189.7Q227 189.7 228 190.2Q228.9 190.7 229.5 191.7Q230 192.6 230 193.7ZM223 193.7Q223 194.5 223.3 195.1Q223.7 195.7 224.3 196Q225 196.4 225.8 196.4Q226.6 196.4 227.2 196Q227.8 195.7 228.2 195.1Q228.6 194.5 228.6 193.7Q228.6 192.9 228.2 192.3Q227.8 191.7 227.2 191.4Q226.6 191 225.8 191Q225 191 224.3 191.4Q223.7 191.7 223.3 192.3Q223 192.9 223 193.7ZM226.5 187.6H225V184.4H226.5ZM251.9 190.7H240V189.5H251.9ZM253.8 194.3H237.9V193.1H253.8ZM241.6 190.1H240V184.9H241.6ZM252 201.2H239.9V199.9H252ZM241.5 200.3H239.9V196.1H241.5ZM276.1 199.4H260.2V198H276.1ZM274.6 187.2H261.6V186H274.6ZM274.5 194.6H261.6V193.3H274.5ZM265.9 193.5H264.4V187.1H265.9ZM271.8 193.5H270.3V187.1H271.8ZM293.4 195.4H277.5V194.1H293.4ZM291.7 201.4H279.6V200.1H291.7ZM281.1 200.5H279.6V196.6H281.1ZM286.2 194.7H284.7V191.6H286.2ZM291.3 189.1H281.1V191.4H279.5V187.9H289.8V186H279.5V184.8H291.3ZM291.7 192.2H279.5V191H291.7ZM308.8 194.9H296.8V193.6H308.8ZM310.7 199.3H294.8V198H310.7ZM308.6 187H298.4V194H296.8V185.7H308.6ZM308.3 190.8H297.9V189.6H308.3ZM322.5 190.5H319.5V189.2H322.5ZM320.2 189.8Q320.2 191 319.7 192Q319.2 192.9 318.3 193.5Q317.4 194 316.2 194Q315.1 194 314.2 193.5Q313.3 192.9 312.8 192Q312.3 191 312.3 189.8Q312.3 188.6 312.8 187.6Q313.3 186.6 314.2 186.1Q315.1 185.6 316.2 185.6Q317.4 185.6 318.3 186.1Q319.2 186.6 319.7 187.6Q320.2 188.6 320.2 189.8ZM313.6 189.8Q313.6 190.6 314 191.3Q314.3 191.9 314.9 192.3Q315.5 192.7 316.2 192.7Q317 192.7 317.5 192.3Q318.1 191.9 318.5 191.3Q318.8 190.6 318.8 189.8Q318.8 189 318.5 188.3Q318.1 187.7 317.5 187.3Q317 186.9 316.2 186.9Q315.5 186.9 314.9 187.3Q314.3 187.7 314 188.3Q313.6 189 313.6 189.8ZM326.8 197.2H325.3V184.2H326.8ZM323.5 196.7H322V184.6H323.5ZM327.3 201.2H315.4V199.9H327.3ZM316.9 200.5H315.4V195.5H316.9ZM343.4 193.8H331.4V192.6H343.4ZM345.2 199.2H329.3V197.9H345.2ZM343.2 187.1H332.9V193.1H331.4V185.8H343.2ZM366.5 201.6H365V184.2H366.5ZM365.5 192.5H362.1V191.2H365.5ZM352.6 197.9 351.7 196.8Q353.8 195.6 355.1 194Q356.5 192.5 357.1 190.6Q357.7 188.8 357.7 186.7V186.5H359.1Q359.1 188.8 358.5 190.9Q357.9 192.9 356.4 194.7Q355 196.5 352.6 197.9ZM358.2 187.8H352.3V186.5H358.2ZM362.6 200.7H361.1V184.7H362.6ZM371.2 187.5H376.2V185H377.8V192.5H369.7V185H371.2ZM376.2 191.3V188.7H371.2V191.3ZM382.5 193.2H381V184.2H382.5ZM385.1 189.3H381.8V188H385.1ZM382.5 198.2H373V200.8H371.5V197.1H381V195.3H371.4V194H382.5ZM383.2 201.4H371.5V200.1H383.2ZM386.9 198.2 385.9 197Q387.2 196.4 388.2 195.2Q389.3 194 389.9 192.5Q390.6 191 390.6 189.6V186.7H391.8V189.6Q391.8 191.3 391.1 193.1Q390.5 194.8 389.3 196.2Q388.2 197.6 386.9 198.2ZM396.6 196.6 395.7 197.8Q394.4 197.1 393.3 195.8Q392.2 194.6 391.5 192.9Q390.9 191.2 390.9 189.6V186.7H392.1V189.6Q392.1 190.9 392.7 192.3Q393.3 193.7 394.3 194.9Q395.4 196 396.6 196.6ZM396 187.3H386.6V186H396ZM399.7 201.6H398.1V184.2H399.7ZM402.6 192.6H399.3V191.2H402.6ZM417.8 193.5H416.3V184.2H417.8ZM408.1 196.5H416.3V194.4H417.8V201.3H406.6V194.4H408.1ZM416.3 200.1V197.8H408.1V200.1ZM413 189.1Q413 190.2 412.4 191.1Q411.8 192 410.8 192.5Q409.8 193 408.5 193Q407.2 193 406.1 192.5Q405.1 192 404.5 191.1Q403.9 190.2 403.9 189.1Q403.9 187.9 404.5 187Q405.1 186.1 406.1 185.6Q407.2 185.1 408.5 185.1Q409.8 185.1 410.8 185.6Q411.8 186.1 412.4 187Q413 187.9 413 189.1ZM405.4 189.1Q405.4 189.8 405.8 190.5Q406.2 191.1 406.9 191.4Q407.6 191.8 408.5 191.8Q409.3 191.8 410 191.4Q410.7 191.1 411.1 190.5Q411.5 189.8 411.5 189.1Q411.5 188.3 411.1 187.7Q410.7 187.1 410 186.7Q409.3 186.3 408.5 186.4Q407.6 186.3 406.9 186.7Q406.2 187.1 405.8 187.7Q405.4 188.3 405.4 189.1ZM435.1 201.6H433.6V184.2H435.1ZM423.4 196.7H421.9V185.9H423.4ZM431.7 194.9 431.9 196.2Q429.7 196.7 427.6 196.9Q425.5 197.1 423.3 197.1H421.9V195.8H423.3Q425.5 195.8 427.5 195.6Q429.6 195.4 431.7 194.9ZM451.5 201.6H450V184.2H451.5ZM454.4 192.4H451.2V191.1H454.4ZM448.3 195.4 448.5 196.7Q446.6 197 444.7 197.1Q442.9 197.3 440.2 197.3H438.8V196H440.2Q442.7 196 444.6 195.8Q446.4 195.7 448.3 195.4ZM446.9 187.2H440.4V196.6H438.8V185.9H446.9Z"/></g></g><g transform="translate(1008 41.1) scale(0.75) translate(-1008 -32)"><rect x="668.5" y="32.5" width="339" height="175" rx="12" fill="#F6F8FA" stroke="#D1D9E0"/><path fill="#59636E" d="M706.2 66.5H704.5V59.3H706.2ZM706.2 70.8H698.6V72.4H696.9V69.5H704.5V68.5H696.9V67.1H706.2ZM706.6 73.3H696.9V71.9H706.6ZM695.3 66.5 694.5 65.1Q695.6 64.7 696.4 64Q697.1 63.4 697.5 62.5Q697.9 61.6 697.9 60.7V59.6H699.4V60.7Q699.4 62 698.9 63.2Q698.4 64.3 697.5 65.2Q696.6 66 695.3 66.5ZM703.2 64.9 702.3 66.2Q701 65.8 700.1 65Q699.2 64.2 698.8 63.1Q698.3 62 698.3 60.7V59.6H699.7V60.7Q699.7 61.6 700.1 62.4Q700.5 63.3 701.3 63.9Q702.1 64.5 703.2 64.9ZM721.2 67.7H708.3V66.3H721.2ZM719.6 73.4H717.9V70.3H709.7V68.9H719.6ZM715.6 61.3H713.9V59.3H715.6ZM709.5 65.7 708.9 64.4Q710.5 64.3 711.5 63.9Q712.6 63.5 713.2 63Q713.8 62.4 713.8 61.7V61.5H715.3V61.7Q715.3 62.8 714.6 63.7Q713.9 64.5 712.5 65Q711.2 65.5 709.5 65.7ZM720.5 64.4 720 65.7Q718.2 65.5 716.9 65Q715.6 64.5 714.9 63.7Q714.2 62.8 714.2 61.7V61.5H715.7V61.7Q715.7 62.4 716.2 63Q716.8 63.5 717.9 63.9Q719 64.3 720.5 64.4ZM719.9 62H709.6V60.6H719.9ZM726.8 67.5 725.8 66.1Q727 65.7 727.8 65Q728.6 64.3 729 63.3Q729.4 62.4 729.4 61.4V60H730.8V61.4Q730.8 62.8 730.3 64Q729.9 65.2 729 66.1Q728.1 67 726.8 67.5ZM734.4 65.7 733.5 67Q732.3 66.6 731.4 65.8Q730.6 64.9 730.1 63.8Q729.7 62.6 729.7 61.3V60H731.1V61.3Q731.1 62.3 731.5 63.1Q731.9 64 732.6 64.7Q733.4 65.3 734.4 65.7ZM737.8 67.6H736V59.3H737.8ZM737.8 70.7Q737.8 71.5 737.2 72.1Q736.6 72.7 735.6 73.1Q734.5 73.4 733 73.4Q731.5 73.4 730.4 73.1Q729.3 72.7 728.8 72.1Q728.2 71.5 728.2 70.7Q728.2 69.8 728.8 69.2Q729.3 68.6 730.4 68.3Q731.5 68 733 68Q734.5 68 735.6 68.3Q736.6 68.6 737.2 69.2Q737.8 69.8 737.8 70.7ZM729.9 70.7Q729.9 71.1 730.3 71.4Q730.6 71.7 731.3 71.9Q732 72 733 72Q734 72 734.7 71.9Q735.4 71.7 735.7 71.4Q736.1 71.1 736.1 70.7Q736.1 70.2 735.7 69.9Q735.4 69.6 734.7 69.5Q734 69.3 733 69.3Q732 69.3 731.3 69.5Q730.6 69.6 730.3 69.9Q729.9 70.2 729.9 70.7ZM736.3 63.4H733.2V62H736.3ZM751.2 64.3H741.4V62.9H751.2ZM743.2 63.6H741.4V59.5H743.2ZM752.6 67.1H739.8V65.7H752.6ZM751.1 70.7Q751.1 71.5 750.5 72.1Q749.9 72.7 748.8 73Q747.7 73.3 746.2 73.3Q744.6 73.3 743.5 73Q742.4 72.7 741.8 72.1Q741.3 71.5 741.3 70.7Q741.3 69.9 741.8 69.3Q742.4 68.7 743.5 68.4Q744.6 68.1 746.2 68.1Q747.7 68.1 748.8 68.4Q749.9 68.7 750.5 69.3Q751.1 69.9 751.1 70.7ZM743 70.7Q743 71.1 743.4 71.4Q743.8 71.7 744.5 71.9Q745.2 72 746.2 72Q747.2 72 747.9 71.9Q748.6 71.7 749 71.4Q749.3 71.1 749.3 70.7Q749.3 70.3 749 70Q748.6 69.8 747.9 69.6Q747.2 69.5 746.2 69.5Q745.1 69.5 744.4 69.6Q743.7 69.8 743.4 70Q743 70.3 743 70.7ZM769.5 73.4H767.8V59.3H769.5ZM768.4 66.1H765.8V64.7H768.4ZM758.3 70.4 757.3 69.2Q758.9 68.3 759.9 67.1Q761 65.9 761.4 64.5Q761.9 63.1 761.9 61.4V61H763.5Q763.5 63.1 763 64.8Q762.5 66.4 761.4 67.9Q760.2 69.3 758.3 70.4ZM762.4 62.4H757.9V61H762.4ZM766.3 72.7H764.7V59.6H766.3ZM781.9 63.8H778.5V62.4H781.9ZM772.1 67.9 771.2 66.5Q772.3 66.1 773 65.4Q773.8 64.7 774.2 63.7Q774.6 62.8 774.6 61.8V60.1H776V61.8Q776 63.2 775.6 64.4Q775.1 65.6 774.2 66.5Q773.4 67.4 772.1 67.9ZM779.7 66.2 778.7 67.6Q777.5 67.1 776.7 66.3Q775.8 65.4 775.4 64.2Q775 63.1 775 61.8V60.1H776.4V61.8Q776.4 62.7 776.7 63.6Q777.1 64.5 777.9 65.2Q778.6 65.9 779.7 66.2ZM783 69.8H781.3V59.3H783ZM783.4 73.1H773.7V71.7H783.4ZM775.5 72.4H773.7V68.6H775.5Z"/><path fill="#59636E" d="M695.2 85.4H698.8Q700 85.4 700.8 85.8Q701.6 86.3 702 87Q702.4 87.8 702.4 88.8Q702.4 89.7 702 90.5Q701.6 91.3 700.8 91.7Q700 92.1 698.8 92.1H696.2V91H698.7Q699.6 91 700.1 90.7Q700.6 90.4 700.8 89.9Q701.1 89.4 701.1 88.8Q701.1 88.1 700.8 87.6Q700.6 87.1 700.1 86.8Q699.5 86.6 698.7 86.6H696.5V96H695.2ZM704.1 88H705.3V96H704.1ZM703.8 85.9Q703.8 85.7 703.9 85.5Q704.1 85.3 704.3 85.2Q704.5 85.1 704.7 85.1Q705 85.1 705.2 85.2Q705.4 85.3 705.5 85.5Q705.6 85.7 705.6 85.9Q705.6 86.1 705.5 86.3Q705.4 86.5 705.2 86.6Q705 86.7 704.7 86.7Q704.5 86.7 704.3 86.6Q704.1 86.5 703.9 86.3Q703.8 86.1 703.8 85.9ZM708.6 96H707.3V88H708.6V89.3H708.7Q709 88.6 709.5 88.3Q710.1 87.9 711 87.9Q711.8 87.9 712.4 88.3Q713 88.6 713.3 89.3Q713.7 90 713.7 90.9V96H712.4V91Q712.4 90.4 712.2 90Q712 89.5 711.6 89.3Q711.2 89.1 710.6 89.1Q710 89.1 709.6 89.3Q709.1 89.6 708.9 90.1Q708.6 90.6 708.6 91.2ZM715.9 85.4H717.2V94.8H722.1V96H715.9ZM723.3 92.1Q723.3 90.8 723.8 89.9Q724.2 89 725 88.5Q725.9 87.9 726.9 87.9Q728 87.9 728.8 88.5Q729.7 89 730.1 89.9Q730.5 90.8 730.5 92.1Q730.5 93.3 730.1 94.2Q729.7 95.1 728.8 95.6Q728 96.2 726.9 96.2Q725.9 96.2 725 95.6Q724.2 95.1 723.8 94.2Q723.3 93.3 723.3 92.1ZM729.3 92.1Q729.3 91.2 729 90.6Q728.8 89.9 728.2 89.5Q727.7 89.1 726.9 89.1Q726.2 89.1 725.6 89.5Q725.1 89.9 724.8 90.6Q724.6 91.2 724.6 92.1Q724.6 92.9 724.8 93.6Q725.1 94.2 725.6 94.6Q726.2 95 726.9 95Q727.7 95 728.2 94.6Q728.8 94.2 729 93.6Q729.3 92.9 729.3 92.1ZM732.1 96.8H733.4Q733.5 97.4 734 97.7Q734.6 98.1 735.4 98.1Q736.5 98.1 737.1 97.6Q737.6 97.1 737.6 96.1V94.5H737.5Q737.3 94.9 737.1 95.2Q736.8 95.4 736.4 95.7Q735.9 95.9 735.2 95.9Q734.2 95.9 733.5 95.4Q732.7 94.9 732.3 94Q731.8 93.1 731.8 91.9Q731.8 90.7 732.3 89.8Q732.7 88.9 733.5 88.4Q734.2 87.9 735.2 87.9Q735.9 87.9 736.4 88.2Q736.8 88.4 737.1 88.6Q737.3 88.9 737.5 89.3H737.7V88H738.9V96.2Q738.9 97.2 738.4 97.9Q738 98.5 737.2 98.8Q736.4 99.1 735.4 99.1Q734.5 99.1 733.7 98.9Q733 98.6 732.6 98.1Q732.1 97.6 732.1 96.8ZM737.7 92Q737.7 91.1 737.4 90.4Q737.1 89.8 736.6 89.4Q736.1 89.1 735.4 89.1Q734.6 89.1 734.1 89.5Q733.6 89.8 733.4 90.5Q733.1 91.1 733.1 92Q733.1 92.8 733.4 93.4Q733.6 94.1 734.1 94.4Q734.6 94.8 735.4 94.8Q736.1 94.8 736.6 94.4Q737.1 94.1 737.4 93.5Q737.7 92.8 737.7 92ZM744.6 91.4Q744.6 91.1 744.7 90.9Q744.9 90.7 745.1 90.5Q745.3 90.4 745.5 90.4Q745.8 90.4 746 90.5Q746.2 90.7 746.4 90.9Q746.5 91.1 746.5 91.4Q746.5 91.6 746.4 91.8Q746.2 92 746 92.2Q745.8 92.3 745.5 92.3Q745.3 92.3 745.1 92.2Q744.9 92 744.7 91.8Q744.6 91.6 744.6 91.4ZM762 89.6H758.3V88.6H762ZM752.5 94.4 751.7 93.5Q752.7 93 753.5 92.1Q754.2 91.2 754.7 90Q755.2 88.8 755.2 87.7V85.3H756.1V87.7Q756.1 89.1 755.6 90.4Q755.2 91.8 754.3 92.8Q753.5 93.9 752.5 94.4ZM759.7 93.3 759 94.2Q758 93.7 757.2 92.7Q756.3 91.6 755.9 90.3Q755.4 89 755.4 87.7V85.3H756.3V87.7Q756.3 88.8 756.8 90Q757.2 91.1 758 91.9Q758.8 92.8 759.7 93.3ZM762.5 97.2H761.4V84.2H762.5ZM772.6 90.3H770.1V89.3H772.6ZM765.3 94.5 764.6 93.6Q765.5 93.1 766.1 92.3Q766.7 91.4 767.1 90.3Q767.4 89.3 767.4 88.2V87.5H768.3V88.2Q768.3 89.5 768 90.7Q767.6 92 766.9 93Q766.2 93.9 765.3 94.5ZM771.4 93.4 770.7 94.2Q769.8 93.7 769.1 92.8Q768.4 91.8 768 90.6Q767.6 89.4 767.6 88.2V87.5H768.5V88.2Q768.5 89.2 768.9 90.2Q769.2 91.3 769.8 92.1Q770.5 92.9 771.4 93.4ZM771 87.5H765V86.6H771ZM768.5 87.3H767.4V84.6H768.5ZM775.8 97.2H774.7V84.2H775.8ZM773.2 96.5H772.1V84.5H773.2ZM793.4 95.6H781.4V94.6H793.4ZM787.9 95H786.8V91.8H787.9ZM791.9 89.1H784.1V91.7H782.9V88.1H790.7V86.1H782.9V85.1H791.9ZM792.2 92.1H782.9V91.2H792.2ZM805.2 92.2H804V84.2H805.2ZM802.7 89.5 802.8 90.4Q801.4 90.7 800 90.8Q798.6 90.9 796.3 90.9H795.2V90H796.3Q798.5 90 799.9 89.9Q801.3 89.8 802.7 89.5ZM801.4 86.1H796.3V90.5H795.2V85.2H801.4ZM805.2 94.7Q805.2 95.5 804.7 96Q804.1 96.6 803.1 96.9Q802.2 97.2 800.8 97.2Q799.4 97.2 798.5 96.9Q797.5 96.6 796.9 96Q796.4 95.5 796.4 94.7Q796.4 93.9 796.9 93.3Q797.5 92.8 798.5 92.5Q799.4 92.2 800.8 92.2Q802.1 92.2 803.1 92.5Q804.1 92.8 804.7 93.3Q805.2 93.9 805.2 94.7ZM797.6 94.7Q797.6 95.2 798 95.5Q798.3 95.9 799.1 96.1Q799.8 96.2 800.8 96.2Q801.8 96.2 802.5 96.1Q803.3 95.9 803.7 95.5Q804.1 95.2 804.1 94.7Q804.1 94.2 803.7 93.8Q803.3 93.5 802.5 93.3Q801.8 93.1 800.8 93.1Q799.8 93.1 799.1 93.3Q798.3 93.5 798 93.8Q797.6 94.2 797.6 94.7Z"/><path fill="#B8C0CA" d="M707.7 146.9Q707.7 149.8 706.9 151.9Q706.1 154 704.6 155.1Q703.1 156.2 701.1 156.2Q699.6 156.2 698.4 155.6Q697.1 155 696.4 154Q695.6 152.9 695.4 151.5H697.9Q698.1 152.3 698.5 152.8Q699 153.4 699.6 153.7Q700.3 154 701.1 154Q702.4 154 703.3 153.2Q704.3 152.5 704.8 151.1Q705.3 149.7 705.3 147.8H705.1Q704.6 148.5 703.9 149Q703.3 149.6 702.4 149.8Q701.6 150.1 700.7 150.1Q699.2 150.1 698 149.4Q696.7 148.7 696 147.4Q695.3 146.1 695.2 144.6Q695.2 142.9 696 141.6Q696.8 140.3 698.2 139.5Q699.5 138.8 701.3 138.8Q703.1 138.8 704.5 139.6Q705.9 140.3 706.8 142.2Q707.7 144 707.7 146.9ZM697.8 144.5Q697.8 145.5 698.2 146.3Q698.7 147.1 699.5 147.6Q700.3 148 701.3 148Q702.3 148 703.1 147.5Q704 147 704.4 146.2Q704.9 145.4 704.9 144.5Q704.9 143.5 704.5 142.7Q704 141.9 703.2 141.4Q702.4 141 701.3 141Q700.3 141 699.5 141.4Q698.7 141.9 698.2 142.7Q697.8 143.5 697.8 144.5ZM716.9 156H714.3V141.6H714.2L710.2 144.3V141.8L714.4 139H716.9ZM721.1 151.6H723.7Q723.8 152.3 724.3 152.8Q724.7 153.4 725.5 153.7Q726.3 154 727.2 154Q728.2 154 729.1 153.7Q729.9 153.3 730.3 152.7Q730.8 152.1 730.8 151.3Q730.8 150.4 730.3 149.7Q729.9 149.1 729 148.7Q728.1 148.4 726.9 148.4H725.5V146.3H726.9Q727.9 146.3 728.7 145.9Q729.4 145.6 729.8 145Q730.2 144.4 730.2 143.6Q730.2 142.8 729.9 142.2Q729.5 141.6 728.8 141.3Q728.2 141 727.3 141Q726.4 141 725.7 141.3Q724.9 141.6 724.5 142.1Q724 142.7 724 143.4H721.5Q721.6 142.1 722.3 141Q723.1 140 724.4 139.4Q725.7 138.8 727.3 138.8Q728.9 138.8 730.2 139.4Q731.4 140 732.1 141.1Q732.7 142.1 732.7 143.4Q732.7 144.4 732.4 145.1Q732 145.9 731.3 146.4Q730.6 147 729.7 147.2V147.3Q730.9 147.5 731.7 148Q732.5 148.6 732.9 149.4Q733.4 150.3 733.4 151.3Q733.4 152.7 732.6 153.8Q731.8 155 730.4 155.6Q729 156.2 727.2 156.2Q725.5 156.2 724.1 155.6Q722.8 155.1 722 154Q721.2 152.9 721.1 151.6ZM736.2 143.3H738.6V145.3H738.8Q739.2 144.3 740.1 143.7Q741 143.1 742.3 143.1Q743.1 143.1 743.8 143.4Q744.4 143.6 744.9 144.1Q745.4 144.6 745.7 145.3H745.8Q746.1 144.6 746.7 144.1Q747.2 143.6 748 143.4Q748.7 143.1 749.6 143.1Q750.8 143.1 751.7 143.6Q752.6 144.1 753.1 145.1Q753.6 146 753.6 147.5V156H751.1V147.7Q751.1 146.5 750.4 145.9Q749.7 145.3 748.7 145.3Q747.9 145.3 747.3 145.6Q746.7 145.9 746.4 146.5Q746.1 147.1 746.1 147.9V156H743.7V147.5Q743.7 146.9 743.4 146.3Q743.1 145.8 742.6 145.5Q742 145.3 741.3 145.3Q740.7 145.3 740.1 145.6Q739.5 146 739.1 146.6Q738.7 147.3 738.7 148.1V156H736.2ZM761.3 145.1Q760.6 145.1 760.1 145.3Q759.5 145.5 759.2 145.9Q758.9 146.3 758.9 146.8Q758.9 147.4 759.4 147.8Q759.9 148.2 760.9 148.4L762.9 148.9Q764.7 149.3 765.5 150.1Q766.4 151 766.4 152.3Q766.4 153.5 765.8 154.4Q765.2 155.2 764 155.8Q762.8 156.3 761.2 156.3Q759.7 156.3 758.6 155.8Q757.5 155.4 756.8 154.5Q756.2 153.7 756 152.5H758.6Q758.8 153.4 759.4 153.8Q760.1 154.2 761.2 154.2Q762 154.2 762.6 154Q763.2 153.8 763.5 153.4Q763.8 153 763.8 152.5Q763.8 151.9 763.4 151.5Q762.9 151.1 761.9 150.9L759.9 150.4Q758.2 150 757.3 149.1Q756.4 148.2 756.4 146.9Q756.4 145.8 757 144.9Q757.6 144.1 758.7 143.6Q759.9 143.1 761.3 143.1Q762.7 143.1 763.8 143.6Q764.8 144 765.4 144.8Q766 145.7 766.2 146.7H763.8Q763.6 145.9 763 145.5Q762.4 145.1 761.3 145.1Z"/><path fill="#B8C0CA" d="M786.5 154 790.9 149.6H779.6V148H790.9L786.5 143.7L787.6 142.6L793.8 148.8L787.6 155Z"/><path fill="#3B4A6B" d="M824.2 156H817.4V129.9H817.2L809.8 134.6V128.6L817.8 123.5H824.2ZM831.2 144.9 844.9 123.5H849.5V130.9H846.8L838 144.5V144.8H857.5V150.2H831.2ZM847 148.6 847.1 146.3V123.5H853.4V156H847ZM887 138.9Q887 144.3 885.3 148.3Q883.7 152.2 880.7 154.3Q877.7 156.4 873.6 156.4Q870.4 156.4 867.8 155.2Q865.3 153.9 863.8 151.8Q862.2 149.6 861.9 146.9H868.5Q868.8 148 869.5 148.9Q870.2 149.8 871.2 150.2Q872.3 150.7 873.6 150.7Q875.7 150.7 877.3 149.4Q878.8 148.1 879.6 145.8Q880.3 143.4 880.3 140.2H880.1Q879.3 141.6 878 142.6Q876.8 143.6 875.1 144.2Q873.5 144.7 871.7 144.7Q868.8 144.7 866.5 143.4Q864.2 142.1 862.9 139.7Q861.5 137.3 861.5 134.3Q861.5 131 863.1 128.5Q864.6 125.9 867.4 124.5Q870.2 123 873.8 123Q877.5 123 880.4 124.6Q883.3 126.1 885.1 129.7Q887 133.3 887 138.9ZM868.1 134.1Q868.1 135.7 868.9 137Q869.6 138.3 870.9 139.1Q872.2 139.8 873.8 139.8Q875.4 139.8 876.8 139Q878.1 138.3 878.9 136.9Q879.7 135.6 879.7 134.1Q879.7 132.5 878.9 131.2Q878.1 129.9 876.8 129.1Q875.5 128.3 873.9 128.3Q872.2 128.3 870.9 129.1Q869.6 129.9 868.8 131.2Q868.1 132.5 868.1 134.1ZM891.6 131.6H897.9V135.9H898.2Q899 133.7 900.8 132.5Q902.5 131.3 905 131.3Q906.6 131.3 908 131.8Q909.3 132.4 910.3 133.4Q911.2 134.5 911.6 135.9H911.8Q912.4 134.5 913.4 133.4Q914.5 132.4 916 131.9Q917.5 131.3 919.2 131.3Q921.5 131.3 923.2 132.3Q925 133.2 925.9 135.1Q926.9 137 926.9 139.6V156H920.2V140.9Q920.2 138.9 919.2 137.8Q918.1 136.8 916.4 136.8Q915.2 136.8 914.3 137.3Q913.4 137.9 912.9 138.8Q912.4 139.8 912.4 141.1V156H906V140.7Q906 139.5 905.5 138.6Q905.1 137.7 904.2 137.3Q903.4 136.8 902.2 136.8Q901.1 136.8 900.2 137.3Q899.3 137.9 898.8 138.9Q898.2 140 898.2 141.3V156H891.6ZM942 136Q940.9 136 940 136.3Q939.2 136.6 938.7 137.2Q938.2 137.8 938.2 138.5Q938.1 139.4 938.9 140Q939.6 140.6 941.3 141L945.7 141.8Q949.3 142.6 951 144.2Q952.7 145.8 952.7 148.5Q952.7 150.8 951.4 152.6Q950 154.5 947.6 155.5Q945.1 156.5 941.9 156.5Q938.7 156.5 936.3 155.5Q933.9 154.6 932.5 152.9Q931.2 151.2 930.9 148.8H937.6Q937.9 150.2 939 150.9Q940.1 151.6 941.9 151.6Q943.1 151.6 944 151.4Q944.9 151.1 945.5 150.5Q946 149.9 946 149.1Q946 148.2 945.2 147.6Q944.4 146.9 942.7 146.6L938.6 145.8Q935.1 145.1 933.3 143.4Q931.5 141.6 931.6 138.9Q931.6 136.6 932.8 134.9Q934.1 133.1 936.4 132.2Q938.7 131.3 941.9 131.3Q944.9 131.3 947.2 132.2Q949.5 133.1 950.7 134.8Q952 136.5 952.2 138.9H946Q945.7 137.5 944.7 136.8Q943.6 136 942 136Z"/><rect x="694" y="176" width="288" height="5" rx="2.5" fill="#B8C0CA"/><rect x="694" y="188" width="46.9" height="5" rx="2.5" fill="#3B4A6B"/></g></svg>